<mxfile host="app.diagrams.net" modified="2023-06-11T10:06:06.327Z" agent="Mozilla/5.0 (Windows NT 10.0; Win64; x64) AppleWebKit/537.36 (KHTML, like Gecko) Chrome/114.0.0.0 Safari/537.36" etag="bKq0hNxs4n_fs67pfuYC" version="21.3.8" type="device">
  <diagram id="C5RBs43oDa-KdzZeNtuy" name="Page-1">
    <mxGraphModel dx="1050" dy="549" grid="1" gridSize="10" guides="1" tooltips="1" connect="1" arrows="1" fold="1" page="1" pageScale="1" pageWidth="827" pageHeight="1169" math="0" shadow="0">
      <root>
        <mxCell id="WIyWlLk6GJQsqaUBKTNV-0" />
        <mxCell id="WIyWlLk6GJQsqaUBKTNV-1" parent="WIyWlLk6GJQsqaUBKTNV-0" />
        <mxCell id="zOjQ_AWnwAsZF2IlZUAq-1" style="edgeStyle=orthogonalEdgeStyle;rounded=0;orthogonalLoop=1;jettySize=auto;html=1;" edge="1" parent="WIyWlLk6GJQsqaUBKTNV-1" source="zOjQ_AWnwAsZF2IlZUAq-0" target="zOjQ_AWnwAsZF2IlZUAq-2">
          <mxGeometry relative="1" as="geometry">
            <mxPoint x="265" y="180" as="targetPoint" />
          </mxGeometry>
        </mxCell>
        <mxCell id="zOjQ_AWnwAsZF2IlZUAq-0" value="START" style="ellipse;whiteSpace=wrap;html=1;" vertex="1" parent="WIyWlLk6GJQsqaUBKTNV-1">
          <mxGeometry x="220" y="90" width="90" height="50" as="geometry" />
        </mxCell>
        <mxCell id="zOjQ_AWnwAsZF2IlZUAq-3" style="edgeStyle=orthogonalEdgeStyle;rounded=0;orthogonalLoop=1;jettySize=auto;html=1;" edge="1" parent="WIyWlLk6GJQsqaUBKTNV-1" source="zOjQ_AWnwAsZF2IlZUAq-2">
          <mxGeometry relative="1" as="geometry">
            <mxPoint x="265" y="260" as="targetPoint" />
          </mxGeometry>
        </mxCell>
        <mxCell id="zOjQ_AWnwAsZF2IlZUAq-2" value="string[] array&lt;br&gt;int count&lt;br&gt;string[] preresult&lt;br&gt;string []result" style="shape=parallelogram;perimeter=parallelogramPerimeter;whiteSpace=wrap;html=1;fixedSize=1;" vertex="1" parent="WIyWlLk6GJQsqaUBKTNV-1">
          <mxGeometry x="160" y="170" width="210" height="60" as="geometry" />
        </mxCell>
        <mxCell id="zOjQ_AWnwAsZF2IlZUAq-6" style="edgeStyle=orthogonalEdgeStyle;rounded=0;orthogonalLoop=1;jettySize=auto;html=1;" edge="1" parent="WIyWlLk6GJQsqaUBKTNV-1" source="zOjQ_AWnwAsZF2IlZUAq-5" target="zOjQ_AWnwAsZF2IlZUAq-7">
          <mxGeometry relative="1" as="geometry">
            <mxPoint x="265" y="350" as="targetPoint" />
          </mxGeometry>
        </mxCell>
        <mxCell id="zOjQ_AWnwAsZF2IlZUAq-5" value="count = 0&lt;br&gt;preresult = new string[count]&lt;br&gt;result = preresult" style="rounded=0;whiteSpace=wrap;html=1;" vertex="1" parent="WIyWlLk6GJQsqaUBKTNV-1">
          <mxGeometry x="187.5" y="260" width="155" height="60" as="geometry" />
        </mxCell>
        <mxCell id="zOjQ_AWnwAsZF2IlZUAq-8" style="edgeStyle=orthogonalEdgeStyle;rounded=0;orthogonalLoop=1;jettySize=auto;html=1;" edge="1" parent="WIyWlLk6GJQsqaUBKTNV-1" source="zOjQ_AWnwAsZF2IlZUAq-7">
          <mxGeometry relative="1" as="geometry">
            <mxPoint x="265" y="470" as="targetPoint" />
          </mxGeometry>
        </mxCell>
        <mxCell id="zOjQ_AWnwAsZF2IlZUAq-26" style="edgeStyle=orthogonalEdgeStyle;rounded=0;orthogonalLoop=1;jettySize=auto;html=1;" edge="1" parent="WIyWlLk6GJQsqaUBKTNV-1" source="zOjQ_AWnwAsZF2IlZUAq-7" target="zOjQ_AWnwAsZF2IlZUAq-27">
          <mxGeometry relative="1" as="geometry">
            <mxPoint x="410" y="390" as="targetPoint" />
          </mxGeometry>
        </mxCell>
        <mxCell id="zOjQ_AWnwAsZF2IlZUAq-7" value="i = 0&lt;br&gt;i &amp;lt; array.Lenght&lt;br&gt;i++" style="shape=hexagon;perimeter=hexagonPerimeter2;whiteSpace=wrap;html=1;fixedSize=1;" vertex="1" parent="WIyWlLk6GJQsqaUBKTNV-1">
          <mxGeometry x="190" y="350" width="150" height="80" as="geometry" />
        </mxCell>
        <mxCell id="zOjQ_AWnwAsZF2IlZUAq-11" style="edgeStyle=orthogonalEdgeStyle;rounded=0;orthogonalLoop=1;jettySize=auto;html=1;entryX=0;entryY=0.5;entryDx=0;entryDy=0;" edge="1" parent="WIyWlLk6GJQsqaUBKTNV-1" source="zOjQ_AWnwAsZF2IlZUAq-10" target="zOjQ_AWnwAsZF2IlZUAq-7">
          <mxGeometry relative="1" as="geometry">
            <Array as="points">
              <mxPoint x="140" y="495" />
              <mxPoint x="140" y="390" />
            </Array>
          </mxGeometry>
        </mxCell>
        <mxCell id="zOjQ_AWnwAsZF2IlZUAq-12" style="edgeStyle=orthogonalEdgeStyle;rounded=0;orthogonalLoop=1;jettySize=auto;html=1;" edge="1" parent="WIyWlLk6GJQsqaUBKTNV-1" source="zOjQ_AWnwAsZF2IlZUAq-10">
          <mxGeometry relative="1" as="geometry">
            <mxPoint x="265" y="570" as="targetPoint" />
          </mxGeometry>
        </mxCell>
        <mxCell id="zOjQ_AWnwAsZF2IlZUAq-10" value="array[i].Lenght &amp;lt;=3" style="rhombus;whiteSpace=wrap;html=1;" vertex="1" parent="WIyWlLk6GJQsqaUBKTNV-1">
          <mxGeometry x="180" y="470" width="170" height="50" as="geometry" />
        </mxCell>
        <mxCell id="zOjQ_AWnwAsZF2IlZUAq-15" style="edgeStyle=orthogonalEdgeStyle;rounded=0;orthogonalLoop=1;jettySize=auto;html=1;entryX=0.5;entryY=0;entryDx=0;entryDy=0;" edge="1" parent="WIyWlLk6GJQsqaUBKTNV-1" source="zOjQ_AWnwAsZF2IlZUAq-13" target="zOjQ_AWnwAsZF2IlZUAq-14">
          <mxGeometry relative="1" as="geometry" />
        </mxCell>
        <mxCell id="zOjQ_AWnwAsZF2IlZUAq-13" value="count++&lt;br&gt;preresult = new string[count]" style="rounded=0;whiteSpace=wrap;html=1;" vertex="1" parent="WIyWlLk6GJQsqaUBKTNV-1">
          <mxGeometry x="182.5" y="570" width="165" height="50" as="geometry" />
        </mxCell>
        <mxCell id="zOjQ_AWnwAsZF2IlZUAq-16" style="edgeStyle=orthogonalEdgeStyle;rounded=0;orthogonalLoop=1;jettySize=auto;html=1;" edge="1" parent="WIyWlLk6GJQsqaUBKTNV-1" source="zOjQ_AWnwAsZF2IlZUAq-14" target="zOjQ_AWnwAsZF2IlZUAq-17">
          <mxGeometry relative="1" as="geometry">
            <mxPoint x="265" y="760" as="targetPoint" />
          </mxGeometry>
        </mxCell>
        <mxCell id="zOjQ_AWnwAsZF2IlZUAq-22" style="edgeStyle=orthogonalEdgeStyle;rounded=0;orthogonalLoop=1;jettySize=auto;html=1;exitX=1;exitY=0.5;exitDx=0;exitDy=0;" edge="1" parent="WIyWlLk6GJQsqaUBKTNV-1" source="zOjQ_AWnwAsZF2IlZUAq-14" target="zOjQ_AWnwAsZF2IlZUAq-23">
          <mxGeometry relative="1" as="geometry">
            <mxPoint x="330" y="860" as="targetPoint" />
            <Array as="points">
              <mxPoint x="370" y="680" />
              <mxPoint x="370" y="840" />
            </Array>
          </mxGeometry>
        </mxCell>
        <mxCell id="zOjQ_AWnwAsZF2IlZUAq-14" value="int j = 0&lt;br&gt;j &amp;lt; preresult.Lenght-1&lt;br&gt;j++" style="shape=hexagon;perimeter=hexagonPerimeter2;whiteSpace=wrap;html=1;fixedSize=1;" vertex="1" parent="WIyWlLk6GJQsqaUBKTNV-1">
          <mxGeometry x="180" y="640" width="170" height="80" as="geometry" />
        </mxCell>
        <mxCell id="zOjQ_AWnwAsZF2IlZUAq-21" style="edgeStyle=orthogonalEdgeStyle;rounded=0;orthogonalLoop=1;jettySize=auto;html=1;entryX=0;entryY=0.5;entryDx=0;entryDy=0;" edge="1" parent="WIyWlLk6GJQsqaUBKTNV-1" source="zOjQ_AWnwAsZF2IlZUAq-17" target="zOjQ_AWnwAsZF2IlZUAq-14">
          <mxGeometry relative="1" as="geometry">
            <Array as="points">
              <mxPoint x="160" y="765" />
              <mxPoint x="160" y="680" />
            </Array>
          </mxGeometry>
        </mxCell>
        <mxCell id="zOjQ_AWnwAsZF2IlZUAq-17" value="preresult[j]=result[j]" style="rounded=0;whiteSpace=wrap;html=1;" vertex="1" parent="WIyWlLk6GJQsqaUBKTNV-1">
          <mxGeometry x="205" y="750" width="120" height="30" as="geometry" />
        </mxCell>
        <mxCell id="zOjQ_AWnwAsZF2IlZUAq-24" style="edgeStyle=orthogonalEdgeStyle;rounded=0;orthogonalLoop=1;jettySize=auto;html=1;entryX=0;entryY=0.5;entryDx=0;entryDy=0;" edge="1" parent="WIyWlLk6GJQsqaUBKTNV-1" source="zOjQ_AWnwAsZF2IlZUAq-23" target="zOjQ_AWnwAsZF2IlZUAq-7">
          <mxGeometry relative="1" as="geometry">
            <Array as="points">
              <mxPoint x="140" y="840" />
              <mxPoint x="140" y="390" />
            </Array>
          </mxGeometry>
        </mxCell>
        <mxCell id="zOjQ_AWnwAsZF2IlZUAq-23" value="preresult[count-1] =array[i]&lt;br&gt;result = preresult" style="rounded=0;whiteSpace=wrap;html=1;" vertex="1" parent="WIyWlLk6GJQsqaUBKTNV-1">
          <mxGeometry x="190" y="810" width="160" height="60" as="geometry" />
        </mxCell>
        <mxCell id="zOjQ_AWnwAsZF2IlZUAq-28" style="edgeStyle=orthogonalEdgeStyle;rounded=0;orthogonalLoop=1;jettySize=auto;html=1;" edge="1" parent="WIyWlLk6GJQsqaUBKTNV-1" source="zOjQ_AWnwAsZF2IlZUAq-27" target="zOjQ_AWnwAsZF2IlZUAq-29">
          <mxGeometry relative="1" as="geometry">
            <mxPoint x="530" y="390" as="targetPoint" />
          </mxGeometry>
        </mxCell>
        <mxCell id="zOjQ_AWnwAsZF2IlZUAq-27" value="return result" style="shape=document;whiteSpace=wrap;html=1;boundedLbl=1;" vertex="1" parent="WIyWlLk6GJQsqaUBKTNV-1">
          <mxGeometry x="400" y="365" width="86" height="50" as="geometry" />
        </mxCell>
        <mxCell id="zOjQ_AWnwAsZF2IlZUAq-29" value="END" style="ellipse;whiteSpace=wrap;html=1;" vertex="1" parent="WIyWlLk6GJQsqaUBKTNV-1">
          <mxGeometry x="530" y="365" width="100" height="50" as="geometry" />
        </mxCell>
        <mxCell id="zOjQ_AWnwAsZF2IlZUAq-30" value="yes" style="text;html=1;align=center;verticalAlign=middle;resizable=0;points=[];autosize=1;strokeColor=none;fillColor=none;" vertex="1" parent="WIyWlLk6GJQsqaUBKTNV-1">
          <mxGeometry x="260" y="430" width="40" height="30" as="geometry" />
        </mxCell>
        <mxCell id="zOjQ_AWnwAsZF2IlZUAq-31" value="yes" style="text;html=1;align=center;verticalAlign=middle;resizable=0;points=[];autosize=1;strokeColor=none;fillColor=none;" vertex="1" parent="WIyWlLk6GJQsqaUBKTNV-1">
          <mxGeometry x="260" y="530" width="40" height="30" as="geometry" />
        </mxCell>
        <mxCell id="zOjQ_AWnwAsZF2IlZUAq-32" value="yes" style="text;html=1;align=center;verticalAlign=middle;resizable=0;points=[];autosize=1;strokeColor=none;fillColor=none;" vertex="1" parent="WIyWlLk6GJQsqaUBKTNV-1">
          <mxGeometry x="260" y="720" width="40" height="30" as="geometry" />
        </mxCell>
        <mxCell id="zOjQ_AWnwAsZF2IlZUAq-33" value="no" style="text;html=1;align=center;verticalAlign=middle;resizable=0;points=[];autosize=1;strokeColor=none;fillColor=none;" vertex="1" parent="WIyWlLk6GJQsqaUBKTNV-1">
          <mxGeometry x="142.5" y="470" width="40" height="30" as="geometry" />
        </mxCell>
        <mxCell id="zOjQ_AWnwAsZF2IlZUAq-34" value="no" style="text;html=1;align=center;verticalAlign=middle;resizable=0;points=[];autosize=1;strokeColor=none;fillColor=none;" vertex="1" parent="WIyWlLk6GJQsqaUBKTNV-1">
          <mxGeometry x="347.5" y="385" width="40" height="30" as="geometry" />
        </mxCell>
        <mxCell id="zOjQ_AWnwAsZF2IlZUAq-35" value="no" style="text;html=1;align=center;verticalAlign=middle;resizable=0;points=[];autosize=1;strokeColor=none;fillColor=none;" vertex="1" parent="WIyWlLk6GJQsqaUBKTNV-1">
          <mxGeometry x="360" y="740" width="40" height="30" as="geometry" />
        </mxCell>
      </root>
    </mxGraphModel>
  </diagram>
</mxfile>
